<svg xmlns="http://www.w3.org/2000/svg" width="38.112" height="38.109" viewBox="0 0 38.112 38.109">
  <path id="Icon_ionic-ios-call" data-name="Icon ionic-ios-call" d="M41.5,34.342a32.011,32.011,0,0,0-6.687-4.475c-2-.962-2.738-.943-4.157.079-1.181.853-1.945,1.647-3.3,1.349s-4.038-2.322-6.637-4.911-4.623-5.278-4.911-6.637.506-2.123,1.349-3.3c1.022-1.419,1.052-2.153.079-4.157A31.378,31.378,0,0,0,12.759,5.6c-1.458-1.458-1.786-1.141-2.589-.853A14.735,14.735,0,0,0,7.8,6.007,7.153,7.153,0,0,0,4.951,9.013c-.566,1.22-1.22,3.492,2.113,9.425a52.592,52.592,0,0,0,9.247,12.332h0l.01.01.01.01h0a52.8,52.8,0,0,0,12.332,9.247c5.933,3.334,8.2,2.679,9.425,2.113A7.031,7.031,0,0,0,41.094,39.3a14.736,14.736,0,0,0,1.26-2.371C42.642,36.128,42.969,35.8,41.5,34.342Z" transform="translate(-4.49 -4.502)" fill="#fff"/>
</svg>
