<svg xmlns="http://www.w3.org/2000/svg" width="15.12" height="15.75" viewBox="0 0 15.12 15.75">
  <path id="Icon_material-add-shopping-cart" data-name="Icon material-add-shopping-cart" d="M9,7.5h1.5V5.25h2.25V3.75H10.5V1.5H9V3.75H6.75v1.5H9ZM6,14.25a1.5,1.5,0,1,0,1.5,1.5A1.5,1.5,0,0,0,6,14.25Zm7.5,0a1.5,1.5,0,1,0,1.5,1.5A1.5,1.5,0,0,0,13.5,14.25ZM6.128,11.813l.023-.09L6.825,10.5h5.588a1.493,1.493,0,0,0,1.313-.773l2.9-5.258-1.305-.72h-.007l-.825,1.5L12.413,9H7.148l-.1-.2L5.37,5.25l-.713-1.5-.7-1.5H1.5v1.5H3L5.7,9.443,4.688,11.28A1.45,1.45,0,0,0,4.5,12,1.5,1.5,0,0,0,6,13.5h9V12H6.315A.191.191,0,0,1,6.128,11.813Z" transform="translate(-1.5 -1.5)" fill="#fff"/>
</svg>
