<svg xmlns="http://www.w3.org/2000/svg" xmlns:xlink="http://www.w3.org/1999/xlink" width="52.833" height="52.833" viewBox="0 0 52.833 52.833">
  <defs>
    <clipPath id="clip-path">
      <path id="Path_2315" data-name="Path 2315" d="M403.68,26.588A26.416,26.416,0,1,0,430.1.172,26.416,26.416,0,0,0,403.68,26.588" transform="translate(-403.68 -0.172)" fill="none"/>
    </clipPath>
    <linearGradient id="linear-gradient" x1="-3.497" y1="1.001" x2="-3.488" y2="1.001" gradientUnits="objectBoundingBox">
      <stop offset="0" stop-color="#b900b3"/>
      <stop offset="1" stop-color="#e7002b"/>
    </linearGradient>
  </defs>
  <g id="Group_4127" data-name="Group 4127" transform="translate(-184.731 -0.079)">
    <g id="Group_4060" data-name="Group 4060" transform="translate(184.731 0.079)">
      <g id="Group_4059" data-name="Group 4059" clip-path="url(#clip-path)">
        <rect id="Rectangle_11852" data-name="Rectangle 11852" width="52.833" height="52.833" transform="translate(0 0)" fill="url(#linear-gradient)"/>
      </g>
    </g>
    <g id="Group_4125" data-name="Group 4125">
      <path id="Path_2316" data-name="Path 2316" d="M446.34,30.643c3.6,0,4.027.014,5.449.079a7.454,7.454,0,0,1,2.5.464,4.467,4.467,0,0,1,2.559,2.559,7.472,7.472,0,0,1,.464,2.5c.065,1.422.079,1.848.079,5.449s-.014,4.027-.079,5.449a7.472,7.472,0,0,1-.464,2.5,4.467,4.467,0,0,1-2.559,2.559,7.454,7.454,0,0,1-2.5.464c-1.421.065-1.848.079-5.449.079s-4.028-.014-5.449-.079a7.453,7.453,0,0,1-2.5-.464,4.467,4.467,0,0,1-2.559-2.559,7.472,7.472,0,0,1-.464-2.5c-.065-1.422-.079-1.848-.079-5.449s.014-4.027.079-5.449a7.472,7.472,0,0,1,.464-2.5,4.467,4.467,0,0,1,2.559-2.559,7.454,7.454,0,0,1,2.5-.464c1.422-.065,1.848-.079,5.449-.079m0-2.429c-3.662,0-4.121.016-5.56.081a9.9,9.9,0,0,0-3.273.627,6.9,6.9,0,0,0-3.944,3.944,9.906,9.906,0,0,0-.626,3.273c-.066,1.438-.081,1.9-.081,5.56s.016,4.121.081,5.56a9.9,9.9,0,0,0,.626,3.273,6.9,6.9,0,0,0,3.944,3.944,9.887,9.887,0,0,0,3.273.627c1.438.065,1.9.081,5.56.081s4.121-.016,5.56-.081a9.887,9.887,0,0,0,3.273-.627,6.9,6.9,0,0,0,3.944-3.944,9.9,9.9,0,0,0,.626-3.273c.066-1.438.081-1.9.081-5.56s-.016-4.122-.081-5.56a9.906,9.906,0,0,0-.626-3.273,6.9,6.9,0,0,0-3.944-3.944,9.9,9.9,0,0,0-3.273-.627c-1.438-.065-1.9-.081-5.56-.081" transform="translate(-234.773 -15.303)" fill="#fff"/>
      <path id="Path_2317" data-name="Path 2317" d="M454.116,42.55a6.924,6.924,0,1,0,6.925,6.924,6.924,6.924,0,0,0-6.925-6.924m0,11.419a4.495,4.495,0,1,1,4.5-4.5,4.5,4.5,0,0,1-4.5,4.5" transform="translate(-242.549 -23.079)" fill="#fff"/>
      <path id="Path_2318" data-name="Path 2318" d="M477.753,40.034a1.618,1.618,0,1,1-1.618-1.618,1.618,1.618,0,0,1,1.618,1.618" transform="translate(-257.37 -20.836)" fill="#fff"/>
    </g>
  </g>
</svg>
