<svg xmlns="http://www.w3.org/2000/svg" width="52.833" height="52.833" viewBox="0 0 52.833 52.833">
  <g id="snap" transform="translate(-66.39 -0.079)">
    <path id="Path_2319" data-name="Path 2319" d="M197.911,26.588A26.416,26.416,0,1,1,171.494.172a26.416,26.416,0,0,1,26.416,26.416" transform="translate(-78.688 -0.093)" fill="#fffc00"/>
    <path id="Path_2321" data-name="Path 2321" d="M186.257,53.519c-.075,0-.147,0-.221-.006-.047,0-.1.006-.145.006a6.328,6.328,0,0,1-3.877-1.53,5.65,5.65,0,0,0-2.244-1.145,7.2,7.2,0,0,0-1.178-.1,8.1,8.1,0,0,0-1.634.184,3.533,3.533,0,0,1-.609.088.383.383,0,0,1-.423-.3c-.068-.231-.116-.454-.164-.67-.122-.556-.208-.9-.441-.934-2.718-.42-3.5-.993-3.67-1.4a.513.513,0,0,1-.042-.174.3.3,0,0,1,.256-.319c4.178-.688,6.052-4.959,6.13-5.14l.006-.015a1.593,1.593,0,0,0,.149-1.338c-.286-.675-1.222-.972-1.841-1.168-.151-.049-.295-.094-.408-.139-1.236-.488-1.338-.989-1.289-1.245a1.166,1.166,0,0,1,1.135-.739.791.791,0,0,1,.338.068,3.6,3.6,0,0,0,1.489.392,1.226,1.226,0,0,0,.89-.284c-.016-.283-.034-.578-.054-.883-.124-1.975-.279-4.43.346-5.831a7.558,7.558,0,0,1,7.018-4.526l.514-.005h.069a7.572,7.572,0,0,1,7.031,4.529c.625,1.4.47,3.859.346,5.832l-.005.086c-.017.275-.034.542-.049.8a1.193,1.193,0,0,0,.811.282h0a3.728,3.728,0,0,0,1.4-.389,1.053,1.053,0,0,1,.436-.086,1.335,1.335,0,0,1,.5.1l.01,0a.923.923,0,0,1,.7.75c.005.289-.216.724-1.3,1.153-.113.044-.256.09-.409.138-.62.2-1.555.493-1.841,1.169a1.59,1.59,0,0,0,.15,1.337l.007.015c.077.181,1.949,4.451,6.13,5.14a.306.306,0,0,1,.256.319.507.507,0,0,1-.043.175c-.173.4-.95.975-3.668,1.4-.222.034-.309.324-.442.931-.048.221-.1.437-.164.666a.363.363,0,0,1-.389.291H195.8a3.421,3.421,0,0,1-.608-.077,8.146,8.146,0,0,0-1.633-.173,7.2,7.2,0,0,0-1.179.1,5.643,5.643,0,0,0-2.241,1.144,6.336,6.336,0,0,1-3.88,1.531" transform="translate(-93.079 -14.301)" fill="#fff"/>
    <path id="Path_2322" data-name="Path 2322" d="M186,26.31a7.263,7.263,0,0,1,6.751,4.347c.595,1.333.442,3.748.32,5.688-.02.308-.038.606-.054.891l-.007.122.083.092a1.453,1.453,0,0,0,1.029.386h.022a4.03,4.03,0,0,0,1.523-.419.739.739,0,0,1,.306-.057,1.022,1.022,0,0,1,.386.073l.017.007c.292.1.5.295.5.469,0,.1-.072.453-1.106.862-.1.04-.234.082-.389.131-.673.214-1.689.536-2.031,1.341a1.882,1.882,0,0,0,.157,1.593c.123.284,2.041,4.609,6.362,5.321a.191.191,0,0,1-.018.069c-.073.173-.538.768-3.434,1.215-.453.07-.564.578-.693,1.169-.046.211-.094.424-.159.645-.02.067-.023.071-.1.071h-.034a3.245,3.245,0,0,1-.55-.071,8.446,8.446,0,0,0-1.692-.179,7.553,7.553,0,0,0-1.229.1,5.883,5.883,0,0,0-2.37,1.2,6.076,6.076,0,0,1-3.7,1.474c-.07,0-.139,0-.209-.006h-.036c-.039,0-.08.005-.121.005a6.079,6.079,0,0,1-3.7-1.474,5.88,5.88,0,0,0-2.37-1.2,7.549,7.549,0,0,0-1.229-.1,8.328,8.328,0,0,0-1.692.19,3.434,3.434,0,0,1-.55.082c-.1,0-.107-.006-.129-.082-.065-.221-.113-.439-.158-.65-.13-.591-.241-1.1-.693-1.172-2.9-.447-3.362-1.043-3.435-1.215a.213.213,0,0,1-.017-.071c4.32-.712,6.24-5.036,6.361-5.321a1.88,1.88,0,0,0,.157-1.593c-.342-.805-1.357-1.128-2.03-1.341-.154-.049-.287-.091-.389-.131-.873-.346-1.141-.692-1.1-.9.046-.243.467-.49.834-.49a.49.49,0,0,1,.208.038,3.911,3.911,0,0,0,1.619.421,1.492,1.492,0,0,0,1.121-.389l.081-.091-.007-.121c-.015-.285-.034-.583-.053-.891-.123-1.941-.275-4.354.32-5.687a7.253,7.253,0,0,1,6.738-4.345l.517,0Zm0-.612h-.073l-.511,0a7.862,7.862,0,0,0-7.3,4.708c-.655,1.469-.5,3.966-.372,5.972.015.236.031.481.044.719a1.18,1.18,0,0,1-.575.125,3.3,3.3,0,0,1-1.359-.363,1.1,1.1,0,0,0-.468-.1,1.465,1.465,0,0,0-1.436.988c-.081.426.109,1.047,1.477,1.587.124.049.272.1.429.145.565.179,1.42.451,1.652,1a1.312,1.312,0,0,1-.142,1.082l-.013.03c-.075.175-1.884,4.3-5.9,4.958a.614.614,0,0,0-.512.639.837.837,0,0,0,.065.275c.3.7,1.572,1.221,3.887,1.58a2.853,2.853,0,0,1,.207.7c.048.222.1.451.169.693a.684.684,0,0,0,.717.521,3.78,3.78,0,0,0,.667-.094,7.794,7.794,0,0,1,1.575-.178,6.952,6.952,0,0,1,1.129.095,5.357,5.357,0,0,1,2.116,1.092,6.665,6.665,0,0,0,4.055,1.587c.049,0,.1,0,.149-.005s.135.005.216.005a6.665,6.665,0,0,0,4.055-1.586,5.357,5.357,0,0,1,2.116-1.093,6.955,6.955,0,0,1,1.128-.095,7.841,7.841,0,0,1,1.574.167,3.683,3.683,0,0,0,.668.083h.034a.665.665,0,0,0,.683-.511c.07-.237.12-.46.169-.686a2.864,2.864,0,0,1,.206-.7c2.316-.359,3.586-.875,3.887-1.576a.824.824,0,0,0,.066-.276.612.612,0,0,0-.512-.638c-4.017-.662-5.824-4.783-5.9-4.958,0-.01-.009-.02-.014-.029a1.312,1.312,0,0,1-.142-1.082c.232-.546,1.086-.817,1.652-1,.158-.051.306-.1.428-.146,1-.4,1.5-.881,1.493-1.444a1.2,1.2,0,0,0-.9-1.031h0a1.636,1.636,0,0,0-.615-.118,1.356,1.356,0,0,0-.566.115,3.442,3.442,0,0,1-1.273.361,1.129,1.129,0,0,1-.5-.124c.011-.2.024-.413.038-.632l.005-.085c.127-2.007.284-4.505-.372-5.976A7.875,7.875,0,0,0,186,25.7" transform="translate(-92.715 -13.938)" fill="#030303"/>
  </g>
</svg>
