<svg xmlns="http://www.w3.org/2000/svg" width="52.833" height="52.833" viewBox="0 0 52.833 52.833">
  <g id="Group_4124" data-name="Group 4124" transform="translate(-127.337 -0.079)">
    <g id="Group_4123" data-name="Group 4123">
      <path id="Path_2311" data-name="Path 2311" d="M331.094,26.588A26.416,26.416,0,1,1,304.677.172a26.416,26.416,0,0,1,26.416,26.416" transform="translate(-150.924 -0.093)"/>
      <path id="Path_2312" data-name="Path 2312" d="M313.047,50.549c-6.071-5.269-2.145-17,7.189-15.522v1.086c-7.882-.367-11.353,9.036-7.189,14.436M330.072,30.2a7.052,7.052,0,0,0,4.105,1.44V32.7a6.232,6.232,0,0,1-4.105-2.5m-2.531-5.6a7.365,7.365,0,0,0,.114,1.2h-3.721V44.324a9,9,0,0,1-.263,2.282,3.977,3.977,0,0,1-6.991.612,4.048,4.048,0,0,0,5.858-1.812,9.062,9.062,0,0,0,.261-2.282V24.6Z" transform="translate(-168.213 -13.341)" fill="#00f7ef" fill-rule="evenodd"/>
    </g>
    <path id="Path_2313" data-name="Path 2313" d="M330.017,27.221v.024c0,.429.127,6.631,6.636,7.018,0,5.77,0,0,0,4.792A11.4,11.4,0,0,1,330.01,36.7L330,46.034c.059,4.224-2.293,8.368-6.7,9.2a9.546,9.546,0,0,1-4.209-.147c-10.741-3.213-7.172-19.143,3.613-17.439,0,5.143,0,0,0,5.143-4.455-.655-5.946,3.051-4.762,5.7,1.077,2.416,5.513,2.94,7.061-.469a9.022,9.022,0,0,0,.263-2.282V27.221Z" transform="translate(-169.555 -14.764)" fill="#fff" fill-rule="evenodd"/>
    <path id="Path_2314" data-name="Path 2314" d="M323.685,37.536a10.011,10.011,0,0,1,1.133.113c0,5.143,0,0,0,5.143-4.455-.655-5.946,3.051-4.762,5.7.021.049.045.1.07.143a3.078,3.078,0,0,1-1.2-1.343c-1.182-2.654.306-6.36,4.762-5.7,0-4.714,0-.791,0-4.057m13.941-3.408a9.362,9.362,0,0,0,1.134.135c0,5.77,0,0,0,4.792a11.4,11.4,0,0,1-6.646-2.352l-.007,9.33c.059,4.224-2.293,8.368-6.7,9.2a9.545,9.545,0,0,1-4.209-.147,9.085,9.085,0,0,1-4.709-3.117,9.114,9.114,0,0,0,7.784,2.064c4.4-.835,6.754-4.978,6.7-9.2l.005-9.331a11.392,11.392,0,0,0,6.648,2.352c0-4.451,0,.207,0-3.728m-5.5-6.907v.024a8.167,8.167,0,0,0,1.4,4.379,7.124,7.124,0,0,1-2.418-4.4Z" transform="translate(-171.662 -14.764)" fill="#ff004f" fill-rule="evenodd"/>
  </g>
</svg>
